<svg xmlns="http://www.w3.org/2000/svg" version="1.1" xmlns:xlink="http://www.w3.org/1999/xlink" width="1000" height="1000"><g clip-path="url(#SvgjsClipPath1009)"><rect width="1000" height="1000" fill="#000000"></rect><g transform="matrix(1.6513328615239444,0,0,1.6513328615239444,150,150)"><svg xmlns="http://www.w3.org/2000/svg" version="1.1" xmlns:xlink="http://www.w3.org/1999/xlink" width="423.9" height="423.9"><svg id="Layer_3" xmlns="http://www.w3.org/2000/svg" version="1.1" viewBox="0 0 423.9 423.9">
  <!-- Generator: Adobe Illustrator 30.1.0, SVG Export Plug-In . SVG Version: 2.1.1 Build 136)  -->
  <rect x="-169.1" y="-88.9" width="879" height="804"></rect>
  <g>
    <path d="M346.4,194.9c2.2-11.8,15.4-28.2,13.8-42.7-1.1-9.9-9.5-10.7-17.9-10.3,0-4.8-.5-28.5-2.7-37.8-2.2-9.6-5.6-19-9.2-27.2-6-13.4-12.4-18.3-25-25.3-10.6-5.9-21.9-10-33.6-13.4-8.1-2.3-15.7-4.4-23.9-6.1-14.8-3.2-29.1-6.2-43.8-10.3-10.2-2.9-19.5-5.9-29.8-7.6-13.1-2.1-28.2-.4-39.2,7.7,0-3.9-2.6-6.1-6.1-5.9-3.5.2-6.8.8-10.4.5-8.1-.6-17.1-.4-22.6,5.8-3.4,3.9-6.2,8.3-8.4,13-3.6,7.6-4.4,15.7-3.1,24,.6,4,.3,7.6-.5,11.5-2.8,14.3-6.9,35-5.1,49.2.4,3,1.9,6.8.3,9.8-1.9,3.5-1.3,6.3-1.3,10l-.2,45.8c0,22.4-1.8,49.6-6.3,71.1-2.5,0-4.8-.2-7.2.6,3.1,13.3,3.6,6.4,2.1,18.3-2.9,22.3-3.8,16.9-1.5,40.3.8,8.5,2.5,16.4,5.8,24.4,3.4,8.3,6.6,16.6,11.8,23.8,3.2,4.5,8.2,7.5,12.1,11.2,4.7,4.6,10.2,8,15.8,11.6,25.9,16.6,65.9,32,96,18.4,6.3-2.8,12-5.4,17.7-8.9,13.4-8.3,25.3-17.9,36.3-29.3l26.2-27,12-12.9c3.7-4,6.6-8.4,9.3-13.1,5.6-9.7,6.1-18.2,6.2-28.7s.9-3.5,2.5-4.4c6.2-3.6,9.6-12.3,11-18.9,1.8-8.5,1.7-17,1.3-26,5.4.9,10.5.8,15.1-1.7,6.6-3.6,8.1-10.9,5.3-17.5-3-7-4.2-14.6-2.8-22.3v.3ZM337.7,142.1c-3.8,2.1-8.5,4.1-11.3,7.8-2.6-2.9-5.2-5.5-7.9-7.9,5.5-8.2,9.8-15.3,12.9-23.2,1.7-4.2,2.8-8.3,3.6-12.3.4,1.8.8,3.7,1.1,5.5,2.1,10.9,1.7,30.2,1.7,30.2h-.1ZM324.9,76.9c2.2,4.1,4.1,8.7,5.7,13.5-.2.5-.3,1-.3,1.5,1.1,7.7,0,16.1-3.6,25-2.9,7.3-7,14.1-12.1,21.8-1.2-.9-2.3-1.8-3.6-2.6-.2-.1-.4-.3-.5-.4l-6.1-4.2c9.6-22,11.8-47.5,6.2-70.9,8.5,7.3,14.3,16.3,14.3,16.3ZM304.3,56.3v.5c6.9,23.4,5.3,49.5-4.3,72-6.7-4.6-12.1-12.2-14.9-19.6,2.1-12.6,3.5-25,3.2-37.7-.2-7.8-1.5-15-4.5-22.9,4.7,1.1,15.2,5.1,20.4,7.7h.1ZM267.8,43.2c3.9,1.5,7.1,4.4,9.6,7.5,6.2,7.8,5.5,28.2,4.6,38.1-.3,3.5.1,6.8-1.5,10.3-2.6-3.1-4.1-5.8-6-8.6-3.3-4.9-7.5-8.9-10.6-14.1-2-3.5-3.8-7.8-4.5-11.9-1.4-9.3-4.5-17.1-10-25.3,6.8.3,12.5,1.7,18.2,4h.2ZM234.5,35.4c5.3,2.8,9.8,6.6,12.8,11.7,4,7,6.4,14.4,7.7,22.5-8.6-3.5-17-4.9-26-5.5-.3-3.9-.8-6.8-1.5-10.1-2.2-7.5-5.2-14.3-9.3-21.4,5.9-.4,11,1,16.4,2.8h0ZM214.5,38.7c4.4,7.6,7.5,15.8,8.5,24.9l-19.6-1.5c-.5-7.1-2.1-13.2-4.4-19.5l-6.3-14.8c8.8-2,17.2,3.5,21.7,10.9h.1ZM179.5,24.8c5.4,2.1,8.7,6.5,10.8,11.8,3.1,8.2,6.3,16.2,7.1,25.1l-20.4-1.7c1.5-17.3-9.4-28.9-20.7-39.9,7.9-1.6,16.8,1.5,23.3,4.7h0ZM154,26.9c9.1,6.8,18.1,20.4,17.3,32.6-5.4,1-20-5.9-21-11.5-1.5-2.7-2-6-3.9-8.4-3.7-4.6-8.2-8-13.1-11.5,5.8-5.7,14.4-5.9,20.8-1.2h0ZM130.6,33.9c5,3.7,12.1,8.9,13.9,15.2l-13.6-.9-10.8-.7c-1.8,0-2.8-1.4-2.4-3,1.6-5.9,5.6-13.5,12.8-10.7h0ZM103.1,24.7c2.3-1.3,4.8-2,7.4-2h16.6c-2.4,2.3-4.9,3.5-7.3,5.3-5.5,4-9.3,9.1-11.8,15.8-5.4-3.5-10.8-15.8-5-19.1h0ZM94.6,33.7c.7,3.6,2,6.3,4.2,8.7l4.1,4.4c6,6.6,3.7,10.9,1.9,18.7-8.7.3-15.1-6.5-15-15,0-6,.9-11.8,4.9-16.8h-.1ZM88.2,76.9c.2-3.6,1.1-7,1.8-11.1,3.4,3.3,6.6,5.3,11.6,6.1-3.5,4.6-6.5,8.8-8.9,14.1-4.2-1.9-5.2-5.3-4.5-9.1ZM86.1,89.1c1.9.8,2.7,1.7,4.1,2.7l-4.4,9.4c-1.1-4.5-.3-8.1.3-12.2h0ZM80.9,115.2c-.2.8-.4,1.3-.7,1.4.3,0,.5-.7.7-1.4.4-1.9.3-5.1.1-6h0c.2.9.3,4.1-.1,6ZM80.4,111.1c0,.4,0,.9-.1,1.3,0-.5,0-.9.1-1.3ZM80.2,113.2c0,.9-.1,1.8-.2,2.5,0-.6.1-1.5.2-2.5ZM79.8,116.5h-.1.1ZM321.7,262.3c-6.1,17.7-13.2,12.8-13.7,19.7,0,0,.1,8.6-.7,14.8s-2.6,10.8-5.8,15.6l-12.1-9.3c-3.6-2.8-15.1-10.3-19.7-10.6-1.6,0-2.9.9-3.1,2.1-.2,1.1.2,2.7,1.6,3.2,6.5,2.5,12.3,5.9,17.9,10,3.7,2.7,7.4,5.2,10.6,8.5,1.2,1.2,1.2,2.3.2,3.6-3.7,4.8-7.7,9.2-12.1,13.5-1.9-.4-3.3-1.1-4.8-2-16.7-10.8-22.2-20.6-37.1-30.3-1.5-1-3.2-1.3-4.7-.7-1.1.4-1.9,1.4-1.9,2.4s.4,2.3,1.5,2.8c6.3,3.4,11.8,7.7,17,12.8,8.5,8.2,15.4,13.2,25.3,19.9-5.8,6.7-11.3,12.7-17.9,18.6-4.5-2.1-7.9-5.3-11.4-8.7-8.3-8.1-16.3-16-23.7-24.9-3.3-4-12.9-15-18.1-15s-2.4.8-2.7,1.7c-1.1,3.9,13.8,13.7,17,17.6,4.4,5.3,9,10.1,13.9,15l7.6,7.8c4.1,4.2,8.2,7.9,13.1,11.4-6.1,5.6-12.6,13-19.1,16.7-8.4-4.5-19.3-21.5-24.7-29.7l-10.3-15.7c-5.6-8.5-11.5-16.6-18.8-23.8-1.3-1.3-3.1-1.5-4.4-.3s-1.3,2.7,0,4.2c5.1,6.4,10.8,12,15.4,18.9l22.6,33.7c4.3,6.5,9.3,11.6,15.6,16.7-6.3,4.8-12.5,9.2-19.7,12.8-3.8-1.7-6.4-4.5-8.9-7.6-12-15.2-20.4-35.9-28.2-53.8-3-6.9-5.9-13.6-9.8-20.1-.6-1-1.4-1.7-2.6-1.7s-2,.6-2.6,1.7c-1.2,2,.2,3.6,1,5.3l12.2,25.2,11.5,24.8c4.8,10.3,12.1,22.2,21.1,29.5-7.8,3.9-15.6,6.3-23.9,7.1-11.9-9.9-15.5-35.2-17.3-49.4-4-32.2-10-22.5-9.7-20.5,2.7,19.1,5.6,42.1,12.8,59.5,1.6,3.9,3.6,6.8,6.1,10.5-6.6-1.5-13.8-.9-19.7-4.3-9.3-5.4-10.6-29.9-9.5-39.9l2.7-24.4c.6-5.8,1.7-17.1-2.3-21.5-2-.4-2.8,2.3-2.9,4l-3,37.8c-1.1,13.7-1.1,28.8,5.4,41.1-4.9-2.2-9.5-3.4-13.2-6.5-8.3-6.9-12.8-17.1-13.6-28-.5-7.1,1.3-13.7,3.4-20.5,3.1-9.7,8.1-18.2,13.5-26.8,1-1.6.9-3.2,0-3.9-1.1-.9-3.5-1.1-4.5.2-5.4,7.7-9.9,16-13.5,25-4.3,10.7-5.7,22-4.1,33.1.8,5.5,3.1,9.8,6.4,15.1-3.9-2-8-3.8-11.2-7-5.2-5.2-8.8-12.4-10-19.9-2-12.8,2.2-25,10-35.4,4.5-6,9.4-10.5,14.2-15.4.8-.9.4-2.4,0-3-.7-.8-2-.4-2.8-.1-4.9,1.9-8.3,5.2-11.9,9.2-10.7,11.7-16.3,26.4-15.5,42.3.3,5.4,1.6,10,4.1,14.9-2.6-2.3-5.9-4.1-7.7-7.1-5.3-8.8-8.7-23.2-5.9-33.5,1.1-4.1,2.9-8.4,5.5-11.9,5-6.9,19.4-14,14.5-17.6-.7-.5-2.2-.5-3.4,0-5.8,2.8-10.1,7.6-14.2,12.5-8,9.7-9.3,16.3-9.3,28.8-3.9-8.7-9.4-23.5-.8-31.4,3.3-3,5.9-6.2,9.5-9,2.2-1.7,4-5,2-7.4-4.6-1.2-15.2,11.7-18,16.1-.8-5.8-1.3-11.6.6-17.1.7-2.2,3.5-3,5-4.6,1.3-1.3.8-4-.9-4.8-1.3-.6-2.4.4-3.8,0l1.5-6.8c1.8,2.6,4,4.4,6,6.5,2.8,3.1,6,5,9.7,7,12.6,6.7,27.1,8.6,41.2,4.7-.4,2.8,0,4.8,1.3,6.9,6,8.6,13.5,9.7,22.8,5.6,3.1-1.4,6.1-1.8,9.5-1.2,5.7,1.1,11.5-1,15.2-5.2,6.5,3.6,15.2,2.6,22.6,2.4,12.5-.3,24.5-2.5,36.2-7,13.1-5,18.8-3.1,30.9-9.2,2.4-1.2,3.6-3.4,3.6-6.1s-2.7-5.7-6.1-5c-12.3,2.6-22.5.8-33.8-4.9l-14.4-7.3c-16.5-8.3-36.5-15.9-55.2-14.2-6.1.5-14.7,8.7-14.7,16.6-.8-6.9-4.3-16.4-11.8-18.6-8-2.4-16.6-.6-23.8,3.6-7.8,4.6-11.4,10.4-21.3,13.1-6.3,1.7-9.2-2.4-12.9-7.1,4.2-21.9,5.7-43.4,6-65.6l.4-31.9c0-2.8-.5-5.6.1-8.1.3-.4,1.4-.7,1.8-1.3,6.1-9.9,17.1-12.9,28.3-11.7,12.4,1.3,23.4,6.4,34.1,13.4-1.2-4.1-4.5-6.3-7.5-8.6-3.7-2.9-7.8-4.7-12.3-6.1-10.7-3.3-21.7-3.9-32.5-1.1-5,1.3-8.6,4.4-11.8,8.9l1.3-22.9c11.6,2.9,15.7-2.7,25.1-.4,14.8,3.6,21.3,16.7,39.4,17.5l-.6,12c-.7,13.1-12.1,46.8-17.2,60.4-2.5.4-4.5,1.7-5.6,4.3-4.2,10.6,1.7,15,1.8,15.5,1.6,5.7,4.9,10.5,11.1,11.9,9.4,2.1,22.9-.9,27.1-10.8,4.3-.2,8.8.8,13.1-.7,5.1-1.8,9-6.4,8.4-11.9-.2-1.8-1.8-3.1-3.1-3.1-4.8.1-.7,7.1-7.7,9.3-6.3,1.9-13.7-2.4-17.4,4.8-4,7.8-16.9,8.9-22.5,4.3-4.4-3.6-4.4-9.5-2.4-14.5,6.3-16.7,12.1-32.9,16.7-50.2,3.2-12,4.9-24,3.6-36.3-.4-3.8-2.8-6.9-4.9-10-9.1-13.3-21.8-17.2-37.2-16.5-8.9.4-17.3,1.9-25.3,6.3,1-7.3,3.6-13.4,7.1-19.4,4.4-7.5,8.9-14.7,12.5-22.6,2-4.3,3.2-8.7,4.6-13.3,1.1-3.7,1-9.1,1.4-9.4.8-.5,1.5,3.9,8.7,4.1l15.9.4c7.3.2,21.5,9.5,30.4,10.8s17.4,1.8,26.3,2.3c12.8.6,25.1,1.3,37.6,2.9,9.1,1.1,19.8,2.5,26.6,9.9,18.8,20.3,19.5,35.6,33.7,50.2,3.4,3.5,7.3,5,11.5,7.4,7.1,4.1,13.9,9.4,18.4,16.3,5.2,7.9,0,23.2-2.5,31.9-3,10.4-5,20.5-5.8,31.4-.2,2.5-1,11.6,5.5,15.4,1.1.4,2.3,1.1,3.1,1.8,1,8.7,1,18.7-1,27.3l-.4-.7ZM73.7,266.4l4.8,2.9c-.7,1.3-1.1,2.1-2.3,2.8-1.2-1.9-2.5-3.4-2.5-5.7h0ZM170.3,271.5c2.7,12.5,11.4,21.8,23.3,26.9-12.1.2-22.9-5.1-31.2-13.6-4.4-4.5-9-10.5-9.2-16.9-.2-9,9.9-14,17.5-11.7-.8,5.3-1.5,10.1-.4,15.2h0ZM229.2,293.2c-12.2,5.5-27.5,2.9-38.5-3.3-11-6.6-18.7-19.8-13.9-32.5,12.4.8,19.9,3.7,26.2,14.6,7.2,12.2,12.7,16,26.2,21.2h0ZM207,267.3c2-.2,3.3.7,4.7,1.4l16.4,8.5c9.8,5.1,23.5,8.4,35,6-.9,2.2-17,4.9-20.2,5.2-15.7,1.4-28.6-7.6-35.8-21h0ZM171,298.7c-6.4,5.4-4.7.9-14.2,2.6-3.7.6-7,1.4-10.4,2.7-2,.8-5.3.4-7.1-.7-3.1-1.9-4.2-5.7-4.7-9.1,2.7-1,4.7-2,7-3.2,7.2-3.8,6.3-10,6.5-17.6,4.8,12.3,11.7,18.6,22.9,25.3h0ZM139.8,284.3c-5,3.7-11,6.3-17.2,6.8,4.8-6.5,8.3-11.9,10.3-18.7,2-5,2.7-10,4.2-15.6,3.1,5.3,8.2,23.5,2.8,27.6h0ZM127.4,270.4c-2,6-4.5,11.4-8.9,16-5.8,6-7.9,5.3-17.4,2.6,10.6-9.1,17.4-20.7,19.1-34.2,3.4-1.9,7.4-2.5,11.2-1.8-.4,6.2-2.2,11.7-4.1,17.4h.1ZM93.7,286.8c-1.6-.1-3.4-1.1-4.2-2.2,7.5-6.2,7.6-11.8,10.1-15.2,3.6-4.9,8.5-9,14.3-11.4-3,12.2-10.5,21.9-20.2,28.8h0ZM82.9,280.1c-.9-.5-3-1.6-2.3-3,1.1-2.1,2.6-3.5,3-6,3.1.3,5.7.2,8.9-.6-.9,3.7-5.9,11.6-9.6,9.6ZM86.8,119.1c6.5-5.5,24.2-6.5,32.2-6,14.7.8,25,8.2,31,21.4-4.9,1.7-9.1.2-12.6-2.9-4.7-4.3-10.2-7.4-15.9-10.3-5-2.6-10.4-3.8-16.2-3.1l-14.7,1.8c-1.3.2-2.8.3-3.8-.9ZM339.4,207.7c.5,3.8,5.9,11.2,3.9,17.9-1.3,4.6-6.2,6.1-10.4,5.2-4.9-1-12.1-.9-12.5-9.7-.4-8,.5-16,2.7-23.8l5.8-21.3c1.7-6.3,2-12.5,1-19,2.3-5.7,7.4-9.1,13.5-9.5,2.2-.1,4.3-.3,6.4.5,8.2,2.9,3.6,15.4,1.1,21.1l-8.9,20.7c-2.5,5.7-3.3,11.7-2.6,17.8h0Z" style="fill: #fff;"></path>
    <path d="M273.3,127.5c-6.6-5.9-13.5-11-21-15.6-20.7-7-37.2-1.1-57.1,5.7-6.1,2.1-12,3.3-18.3,3.9-2.2.2-4.9,1.6-5.7,3.7-1,2.6,0,5.5,1.7,7.5,1.5,1.6,4.2,3.5,6.9,2.8l19.6-5.1c14.2-3.7,27.8-7.1,42.2-7.6,4.1,0,8.1,1.8,11.7,3.6,6.9,3.4,13.3,7.3,20.5,10,1.2.5,2.3-.4,2.8-1.1,1.8-2.5-1.2-6-3.2-7.8h0ZM265.6,127.8c-7.4-4.1-15.7-8.8-24.7-8.8s-20,1.8-29.8,4.3l-33.3,8.5c-1.6-1.4-2.8-2.7-3.5-4.4,6.5-4.4,17.3-4.2,25.8-7.3,14.8-5.4,35.8-10.9,50.7-4.4,7.1,3.1,13,7.9,18.1,13.5-1.6.2-2.1-.9-3.3-1.5h0Z" style="fill: #fff;"></path>
    <path d="M264.7,155.5c-7.6-5.9-16-10-25.3-11.8-18.6-3.6-40.1-1.7-53.8,12.6.5,2.7,2.3,4.1,4.2,5.4,5.4,3.9,10.5,8,17,10.7,8.8,3.7,17.8,4,27.2,3.4,13.4-.9,25.7-5.9,35.4-15.3-1.2-2.2-2.7-3.6-4.6-5h0ZM209.6,169.1c-7.4-2.6-13.4-7-19.4-12.2,13.4-11.7,34.2-12.3,50.3-8.8,8.8,1.9,16.7,6.1,24.2,11.9-15.9,11.8-36.3,15.5-55,9h-.1Z" style="fill: #fff;"></path>
    <path d="M146.1,160.6c-1.4-5.6-14.4-11.2-19-13.3-4.2-1.9-8.3-3-13.1-3.3-13.7-.7-22.8,4.2-29.3,16.5,2.3,4.9,5.4,9.1,10.1,11.6,4.4,2.3,9.1,4.2,14.6,4.6,12.4.7,24.1-3.5,33.6-11,1.6-1.2,3.7-3.2,3.2-5h0ZM104.1,172.1c-5.6-1.2-11.1-6.9-15.2-11.8,2.6-3,4.7-6.4,8.2-8.4,15.1-8.8,32.3-1.8,45.3,9.1-11.8,8.9-23.8,14.2-38.3,11.1h0Z" style="fill: #fff;"></path>
    <path d="M270.1,148.6c-9.7-5.8-20.1-9.7-31.2-11.5-11.7-1.9-22.7-2.2-34.4-.3-8.7,1.4-16.9,4.2-23.4,10.7,17.9-7.5,42.8-10.5,61.6-7.1,6.7,2.5,12.4,5.5,18.5,8.7,2.6,1.4,11.5,6.6,13.4,4.1-1-2.2-2.6-3.5-4.5-4.6h0Z" style="fill: #fff;"></path>
    <path d="M230.9,147.5c-6.8-.5-13.7,2.3-17.3,8.2-1.8,3.1-.8,7.2,1,10,4.2,6.1,15.1,5.3,20.3,1.9,4.3-2.8,7.1-7.8,5.4-13-1.3-4.1-5.4-6.7-9.5-7h.1ZM235,162.5c-3.7,3.2-8.4,4.5-13.1,3.4-3.1-.7-5.7-3.7-5.2-6.9,1.2-6.5,13.5-10.4,19.2-5,2.3,2.2,1.3,6.5-.9,8.5Z" style="fill: #fff;"></path>
    <path d="M100.9,157.3c-1.4,3.6-1.4,7.3.9,10.5,4.3,6,15.3,5.1,18.1,2.6,4.2-3.7,6-9.8,4-15.3-1.1-3.1-3.6-5.5-6.6-6.1-6.7-1.3-13.7,1.4-16.5,8.3h0ZM114.5,152.8c2.4,0,4.8.7,5.8,2.9,1.2,2.6,1.1,6.2-.4,8.6-2,3-5.3,3.9-9.2,3.8-4.1-.1-8.2-3.4-7.2-7.6,1.2-4.9,6.2-7.6,11-7.7Z" style="fill: #fff;"></path>
    <path d="M229.7,155.9c-1.5-.6-2.3,1.2-3.3,1.7-1-.5-2.7-2.9-4-1-1.4,2,.3,4.4,1.9,5.6,1.9,1.4,4.3.6,6.1-.9,1.1-.8,1.7-1.8,1.4-3.1-.2-1.1-1-1.9-2.1-2.3h0Z" style="fill: #fff;"></path>
    <path d="M113.1,164.7c2.1-.4,3.7-1.2,4-3,.3-1.4-.2-4-2.1-4.3-1.6-.3-2.4,1.4-2.9,2.6-1.7-.2-1.6-2.7-3.3-2.8-.6,0-1.5.3-1.7,1.2-.4,1.6,0,3.8,1.3,4.9,1,.8,2.9,1.6,4.8,1.3h0Z" style="fill: #fff;"></path>
  </g>
</svg></svg></g></g><defs><clipPath id="SvgjsClipPath1009"><rect width="1000" height="1000" x="0" y="0" rx="350" ry="350"></rect></clipPath></defs></svg>